<svg xmlns="http://www.w3.org/2000/svg" viewBox="0 0 600 600" width="24" height="24">
  <circle cx="300" cy="300" r="290" fill="#000000"/>

  <circle cx="300" cy="300" r="45" fill="#f27223"/>

  <g transform="translate(300,300)">
    <g fill="#de5d33">
      <circle r="13" cx="70" cy="0" transform="rotate(0)"/>
      <circle r="13" cx="70" cy="0" transform="rotate(22.5)"/>
      <circle r="13" cx="70" cy="0" transform="rotate(45)"/>
      <circle r="13" cx="70" cy="0" transform="rotate(67.5)"/>
      <circle r="13" cx="70" cy="0" transform="rotate(90)"/>
      <circle r="13" cx="70" cy="0" transform="rotate(112.5)"/>
      <circle r="13" cx="70" cy="0" transform="rotate(135)"/>
      <circle r="13" cx="70" cy="0" transform="rotate(157.5)"/>
      <circle r="13" cx="70" cy="0" transform="rotate(180)"/>
      <circle r="13" cx="70" cy="0" transform="rotate(202.5)"/>
      <circle r="13" cx="70" cy="0" transform="rotate(225)"/>
      <circle r="13" cx="70" cy="0" transform="rotate(247.5)"/>
      <circle r="13" cx="70" cy="0" transform="rotate(270)"/>
      <circle r="13" cx="70" cy="0" transform="rotate(292.5)"/>
      <circle r="13" cx="70" cy="0" transform="rotate(315)"/>
      <circle r="13" cx="70" cy="0" transform="rotate(337.5)"/>
    </g>

    <g fill="#e66a30">
      <circle r="14" cx="105" cy="0" transform="rotate(11.25)"/>
      <circle r="14" cx="105" cy="0" transform="rotate(33.75)"/>
      <circle r="14" cx="105" cy="0" transform="rotate(56.25)"/>
      <circle r="14" cx="105" cy="0" transform="rotate(78.75)"/>
      <circle r="14" cx="105" cy="0" transform="rotate(101.25)"/>
      <circle r="14" cx="105" cy="0" transform="rotate(123.75)"/>
      <circle r="14" cx="105" cy="0" transform="rotate(146.25)"/>
      <circle r="14" cx="105" cy="0" transform="rotate(168.75)"/>
      <circle r="14" cx="105" cy="0" transform="rotate(191.25)"/>
      <circle r="14" cx="105" cy="0" transform="rotate(213.75)"/>
      <circle r="14" cx="105" cy="0" transform="rotate(236.25)"/>
      <circle r="14" cx="105" cy="0" transform="rotate(258.75)"/>
      <circle r="14" cx="105" cy="0" transform="rotate(281.25)"/>
      <circle r="14" cx="105" cy="0" transform="rotate(303.75)"/>
      <circle r="14" cx="105" cy="0" transform="rotate(326.25)"/>
      <circle r="14" cx="105" cy="0" transform="rotate(348.75)"/>
    </g>

     <g fill="#e87743">
       <circle r="14" cx="140" cy="0" transform="rotate(0)"/>
       <circle r="14" cx="140" cy="0" transform="rotate(18)"/>
       <circle r="14" cx="140" cy="0" transform="rotate(36)"/>
       <circle r="14" cx="140" cy="0" transform="rotate(54)"/>
       <circle r="14" cx="140" cy="0" transform="rotate(72)"/>
       <circle r="14" cx="140" cy="0" transform="rotate(90)"/>
       <circle r="14" cx="140" cy="0" transform="rotate(108)"/>
       <circle r="14" cx="140" cy="0" transform="rotate(126)"/>
       <circle r="14" cx="140" cy="0" transform="rotate(144)"/>
       <circle r="14" cx="140" cy="0" transform="rotate(162)"/>
       <circle r="14" cx="140" cy="0" transform="rotate(180)"/>
       <circle r="14" cx="140" cy="0" transform="rotate(198)"/>
       <circle r="14" cx="140" cy="0" transform="rotate(216)"/>
       <circle r="14" cx="140" cy="0" transform="rotate(234)"/>
       <circle r="14" cx="140" cy="0" transform="rotate(252)"/>
       <circle r="14" cx="140" cy="0" transform="rotate(270)"/>
       <circle r="14" cx="140" cy="0" transform="rotate(288)"/>
       <circle r="14" cx="140" cy="0" transform="rotate(306)"/>
       <circle r="14" cx="140" cy="0" transform="rotate(324)"/>
       <circle r="14" cx="140" cy="0" transform="rotate(342)"/>
    </g>

    <g>
       <g fill="#3373ce">
         <circle r="14" cx="185" cy="0" transform="rotate(10)"/>
         <circle r="14" cx="185" cy="0" transform="rotate(30)"/>
         <circle r="14" cx="185" cy="0" transform="rotate(50)"/>
         <circle r="14" cx="185" cy="0" transform="rotate(70)"/>
         <circle r="14" cx="185" cy="0" transform="rotate(90)"/>
         <circle r="14" cx="185" cy="0" transform="rotate(110)"/>
         <circle r="14" cx="185" cy="0" transform="rotate(130)"/>
         <circle r="14" cx="185" cy="0" transform="rotate(150)"/>
         <circle r="14" cx="185" cy="0" transform="rotate(170)"/>
         <circle r="14" cx="185" cy="0" transform="rotate(190)"/>
         <circle r="14" cx="185" cy="0" transform="rotate(210)"/>
         <circle r="14" cx="185" cy="0" transform="rotate(230)"/>
         <circle r="14" cx="185" cy="0" transform="rotate(250)"/>
         <circle r="14" cx="185" cy="0" transform="rotate(270)"/>
         <circle r="14" cx="185" cy="0" transform="rotate(290)"/>
         <circle r="14" cx="185" cy="0" transform="rotate(310)"/>
         <circle r="14" cx="185" cy="0" transform="rotate(330)"/>
         <circle r="14" cx="185" cy="0" transform="rotate(350)"/>
       </g>
       <g fill="#6c62aa">
         <circle r="14" cx="185" cy="0" transform="rotate(0)"/>
         <circle r="14" cx="185" cy="0" transform="rotate(20)"/>
         <circle r="14" cx="185" cy="0" transform="rotate(40)"/>
         <circle r="14" cx="185" cy="0" transform="rotate(60)"/>
         <circle r="14" cx="185" cy="0" transform="rotate(80)"/>
         <circle r="14" cx="185" cy="0" transform="rotate(100)"/>
         <circle r="14" cx="185" cy="0" transform="rotate(120)"/>
         <circle r="14" cx="185" cy="0" transform="rotate(140)"/>
         <circle r="14" cx="185" cy="0" transform="rotate(160)"/>
         <circle r="14" cx="185" cy="0" transform="rotate(180)"/>
         <circle r="14" cx="185" cy="0" transform="rotate(200)"/>
         <circle r="14" cx="185" cy="0" transform="rotate(220)"/>
         <circle r="14" cx="185" cy="0" transform="rotate(240)"/>
         <circle r="14" cx="185" cy="0" transform="rotate(260)"/>
         <circle r="14" cx="185" cy="0" transform="rotate(280)"/>
         <circle r="14" cx="185" cy="0" transform="rotate(300)"/>
         <circle r="14" cx="185" cy="0" transform="rotate(320)"/>
         <circle r="14" cx="185" cy="0" transform="rotate(340)"/>
       </g>
    </g>
  </g>
</svg>